<?xml version="1.0" encoding="UTF-8" standalone="no"?>
<!-- Created with Inkscape (http://www.inkscape.org/) -->
<svg id="svg2" xmlns:rdf="http://www.w3.org/1999/02/22-rdf-syntax-ns#" xmlns="http://www.w3.org/2000/svg" xml:space="preserve" height="99.297" width="800" version="1.1" xmlns:cc="http://creativecommons.org/ns#" xmlns:dc="http://purl.org/dc/elements/1.1/"><metadata id="metadata8"><rdf:RDF><cc:Work rdf:about=""><dc:format>image/svg+xml</dc:format><dc:type rdf:resource="http://purl.org/dc/dcmitype/StillImage"/><dc:title/></cc:Work></rdf:RDF></metadata><defs id="defs6"><clipPath id="clipPath18" clipPathUnits="userSpaceOnUse"><path id="path20" d="m0,542.74,4270,0,0-530-4270,0,0,530z"/></clipPath></defs><g id="g10" transform="matrix(1.25,0,0,-1.25,0,100.88965)"><g id="g12" transform="scale(0.1,0.1)"><path id="path4564" d="m308.86,44.539c0,14.528-11.777,26.305-26.305,26.305s-26.305-11.777-26.305-26.305,11.777-26.305,26.305-26.305,26.305,11.777,26.305,26.305z" transform="matrix(11.990632,0,0,-11.990632,-97.291896,940.40123)" fill="#FFF"/><g id="g14" transform="matrix(1.498829,0,0,1.498829,0,-6.354234)"><g id="g16" fill-rule="nonzero" clip-path="url(#clipPath18)"><path id="path22" fill="#211c1d" d="m95.621,324.54,143.68,0,0,66.008c0,22.461-7.621,33.672-22.891,33.672-1.801,0-5-0.313-9.648-0.891-4.653-0.629-8.602-0.898-11.922-0.898-9.57,0-14.328,4.84-14.328,14.609,0,10.617,6.398,15.93,19.289,15.93,4.179,0,11.801-0.973,22.898-2.93,11.09-1.949,21.25-2.922,30.539-2.922,14.961,0,29.922,1.242,44.883,3.711,8.68,1.399,14.379,2.141,17.078,2.141,13.16,0,19.723-5.352,19.723-15.973,0-9.726-4.613-14.566-13.902-14.566-2.391,0-5.981,0.269-10.79,0.898-4.761,0.578-8.351,0.891-10.781,0.891-15.23,0-22.89-11.211-22.89-33.672v-179.18c0-22.418,7.5-33.668,22.461-33.668,2.39,0,6.058,0.391,11.019,1.129,4.922,0.75,8.59,1.141,10.981,1.141,9.289,0,13.902-4.813,13.902-14.379,0-10.781-6.563-16.133-19.723-16.133-2.699,0-8.558,0.859-17.5,2.66-10.508,2.102-21.879,3.16-34.148,3.16-16.442,0-30.391-0.898-41.75-2.699-13.172-2.109-20.352-3.121-21.571-3.121-13.16,0-19.718,5.27-19.718,15.902,0,9.719,4.758,14.61,14.328,14.61,2.43,0,6.019-0.321,10.781-0.903,4.809-0.628,8.399-0.898,10.789-0.898,12.57,0,20.039,8.238,22.461,24.691,0.27,2.11,0.43,15.539,0.43,40.43v50.699h-143.68v-51.172c0-24.847,0.1601-38.32,0.4687-40.386,2.3907-16.492,9.8902-24.731,22.43-24.731,2.421,0,6.089,0.391,11.011,1.129,4.918,0.75,8.59,1.141,11.02,1.141,9.25,0,13.898-4.813,13.898-14.379,0-10.781-6.597-16.133-19.758-16.133-2.07,0-8.519,0.859-19.3,2.66-14.371,2.379-26.95,3.59-37.731,3.59-12.539,0-26.02-1.211-40.391-3.59l-10.789-1.801c-3.5899-0.589-5.5391-0.859-5.8203-0.859-13.78,0-20.659,5.27-20.659,15.9,0,3.829,1.4102,7.219,4.2617,10.188,2.8477,2.93,6.2071,4.422,10.117,4.422,2.6914,0,6.7109-0.391,12.102-1.141,3.289-0.738,6.4492-1.129,9.4609-1.129,15.23,0,22.887,11.25,22.887,33.668v180.08c0,22.418-7.6562,33.668-22.887,33.668-2.1133,0-5.3906-0.469-9.8906-1.359-4.4922-0.899-8.3906-1.328-11.672-1.328-3.9101,0-7.2695,1.476-10.117,4.488-2.8518,2.97-4.262,6.41-4.262,10.31,0,10.472,6.8789,15.742,20.66,15.742,2.6992,0,8.2109-0.781,16.609-2.262,11.359-2.109,25.309-3.168,41.75-3.168,6.2891,0,15.629,0.938,28.05,2.699,12.418,1.801,21.641,2.731,27.621,2.731,13.161,0,19.758-5.313,19.758-15.93,0-4.141-1.359-7.621-4.058-10.43-2.661-2.82-5.981-4.179-9.84-4.179-3.321,0-7.352,0.347-12.153,1.09-4.769,0.777-8.089,1.128-9.878,1.128-14.649,0-22.149-11.21-22.43-33.671l-0.4687-66.438"/><path id="path24" fill="#211c1d" d="m503.75,235.2,0,31.879c-6.559-6.019-13.48-10.199-20.781-12.582-7.309-2.379-20.348-4.488-39.141-6.289-33.988-3.277-50.976-15.859-50.976-37.699,0-11.399,4.097-20.352,12.347-26.949,8.242-6.602,19.371-9.879,33.43-9.879,20.082,0,35.859,5.468,47.391,16.359,11.519,10.938,17.421,25.981,17.73,45.16zm50.309-89.371c-24.571,0-39.68,10.621-45.348,31.871-15.27-22.422-39.223-33.672-71.832-33.672-24.258,0-43.641,6.012-58.168,17.969-14.531,11.992-21.762,28.012-21.762,48.043,0,24.848,10.629,43.09,31.879,54.77,8.082,4.488,15.043,7.418,20.863,8.75,5.86,1.371,17.579,3.089,35.231,5.199,25.156,2.691,41.558,6.398,49.18,11.211,7.617,4.758,11.449,13.629,11.449,26.48,0,12.27-4.262,21.949-12.781,28.989-8.551,6.992-20.43,10.539-35.7,10.539-13.48,0-26.05-3.75-37.73-11.25-4.5-2.969-6.719-6.129-6.719-9.411,0-1.207,1.328-2.699,4.02-4.488,4.218-2.969,6.289-8.09,6.289-15.281,0-5.969-2.149-10.899-6.481-14.801-4.34-3.906-9.847-5.859-16.41-5.859-7.769,0-14.301,2.691-19.527,8.121-5.242,5.351-7.852,11.961-7.852,19.73,0,16.758,8.32,31.129,24.918,43.09,16.602,11.988,36.723,17.961,60.391,17.961,54.453,0,81.722-26.133,81.722-78.391v-90.511c0-14.34,0.27-22.848,0.899-25.508,1.789-10.473,6.871-15.699,15.269-15.699,10.469,0,15.7,9.527,15.7,28.547v21.839c0,9.493,4.57,14.262,13.671,14.262,9.731,0,14.61-7.191,14.61-21.57v-27.809c-0.621-28.75-15.86-43.121-45.781-43.121"/><path id="path26" fill="#211c1d" d="m682.89,362.47,0-12.781c17.968,22.742,41.91,34.101,71.839,34.101,16.168,0,31.442-4.101,45.782-12.34,14.367-8.242,24.097-18.48,29.218-30.742,4.18-10.199,6.29-23.519,6.29-39.961v-85.308c0-12.899,0.109-20.508,0.429-22.899,1.481-10.191,5.539-15.269,12.102-15.269,2.699,0,6.219,0.386,10.59,1.128,4.339,0.75,7.379,1.141,9.179,1.141,3.91,0,7.27-1.371,10.121-4.07,2.848-2.692,4.258-5.973,4.258-9.879,0-4.492-1.801-8.203-5.398-11.211-3.59-3.012-7.922-4.492-13-4.492-4.18,0-11.102,0.582-20.672,1.801-9.57,1.21-18.551,1.789-26.949,1.789-7.77,0-14.219-0.309-19.301-0.899-14.957-1.789-22.891-2.691-23.789-2.691-11.988,0-17.969,5.23-17.969,15.703,0,9.297,5.199,13.949,15.59,13.949,2.418,0,5.16-0.32,8.238-0.902,5.781-1.207,9.461-1.84,10.981-1.84,7.3,0,11.289,8.242,11.91,24.73v84.371c0,15.899-0.781,26.801-2.262,32.782-2.699,11.398-8.476,20.226-17.418,26.519-9.851,6.879-21.019,10.309-33.558,10.309-23.872,0-41.012-8.512-51.403-25.578-7.187-11.684-10.75-31.571-10.75-59.731v-59.691c0-13.199,0.903-22.18,2.699-26.949,1.801-4.801,5.082-7.192,9.883-7.192,2.379,0,5.668,0.512,9.879,1.571,4.18,1.05,7.621,1.601,10.32,1.601,9.25,0,13.899-5.043,13.899-15.082,0-9.73-5.969-14.57-17.969-14.57-2.379,0-10.148,0.902-23.32,2.691-6.602,0.899-13.942,1.328-22.031,1.328-6.25,0-14.649-0.578-25.11-1.789-13.168-1.488-20.668-2.23-22.469-2.23-12.57,0-18.859,5.082-18.859,15.269,0,9.571,4.879,14.383,14.649,14.383,1.519,0,4.332-0.473,8.468-1.371,4.102-0.898,8.133-1.371,12.114-1.371,9.136,0,13.867,8.711,14.179,26.062v119.88c-0.621,10.2-1.91,17.149-3.902,20.899-2,3.711-5.399,5.621-10.277,5.621-2.153,0-5.274-0.469-9.372-1.36-4.14-0.902-7.269-1.371-9.378-1.371-10.973,0-16.481,4.879-16.481,14.61,0,10.043,6.75,15.043,20.188,15.043,1.839,0,3.32-0.16,4.492-0.473l16.648-1.758c4.762,0,8.981,0.348,12.571,1.09,7.781,0.75,11.8,1.141,12.109,1.141,8.672,0,13.012-4.571,13.012-13.711"/><path id="path28" fill="#211c1d" d="m994.65,383.79c20.002,0,36.722-5.23,50.122-15.699v1.797c0,11.051,4.8,16.601,14.37,16.601,9.88,0,14.81-4.769,14.81-14.34,0-1.789-0.24-6.32-0.75-13.468-0.97-6.024-1.48-11.992-1.48-17.973,0-3.59,0.35-8.828,1.13-15.699,0.74-6.918,1.1-12.149,1.1-15.75,0-11.36-4.85-17.031-14.57-17.031-9.46,0-14.3,4.769-14.61,14.339v14.84c-0.28,8.992-5.47,16.684-15.55,23.133-10.08,6.399-21.88,9.649-35.392,9.649-13.867,0-25.43-3.559-34.726-10.551-9.332-7.028-13.981-15.778-13.981-26.289,0-19.141,13.199-30.508,39.609-34.102l26.13-3.598c51.05-6.91,76.56-28,76.56-63.32,0-21.558-8.2-38.98-24.61-52.301-16.4-13.32-37.89-20-64.451-20-24.808,0-46.289,7.032-64.488,21.129v-8.508c0-10.82-5.082-16.21-15.281-16.21-11.051,0-16.602,6.171-16.602,18.429,0-2.109,0.903,5.672,2.703,23.36,0.579,4.179,0.899,8.363,0.899,12.543,0,7.187-0.59,13.949-1.801,20.199-1.168,6.289-1.801,11.25-1.801,14.84,0,10.468,4.813,15.699,14.383,15.699,6.289,0,10.231-1.52,11.91-4.488,1.641-3.012,2.617-10.942,2.891-23.793,0.308-12.887,7.027-23.36,20.199-31.438,13.199-8.09,29.957-12.109,50.309-12.109,14.65,0,26.8,3.75,36.37,11.25,9.57,7.457,14.37,16.867,14.37,28.238,0,20.352-16.17,32.191-48.51,35.512-30.82,3.277-54.301,9.328-70.469,18.16-16.171,8.828-24.261,24.34-24.261,46.488,0,20.93,7.929,37.93,23.711,50.93,15.82,13.051,36.41,19.531,61.757,19.531"/><path id="path30" fill="#211c1d" d="m1215.6,383.79c20,0,36.72-5.23,50.11-15.699v1.797c0,11.051,4.81,16.601,14.38,16.601,9.88,0,14.8-4.769,14.8-14.34,0-1.789-0.23-6.32-0.74-13.468-0.98-6.024-1.48-11.992-1.48-17.973,0-3.59,0.39-8.828,1.13-15.699,0.7-6.918,1.09-12.149,1.09-15.75,0-11.36-4.84-17.031-14.57-17.031-9.45,0-14.29,4.769-14.61,14.339v14.84c-0.31,8.992-5.46,16.684-15.54,23.133-10.08,6.399-21.88,9.649-35.39,9.649-13.87,0-25.43-3.559-34.73-10.551-9.34-7.028-13.98-15.778-13.98-26.289,0-19.141,13.2-30.508,39.6-34.102l26.14-3.598c51.05-6.91,76.56-28,76.56-63.32,0-21.558-8.2-38.98-24.61-52.301-16.41-13.32-37.89-20-64.45-20-24.81,0-46.29,7.032-64.49,21.129v-8.508c0-10.82-5.08-16.21-15.28-16.21-11.05,0-16.6,6.171-16.6,18.429,0-2.109,0.9,5.672,2.7,23.36,0.58,4.179,0.89,8.363,0.89,12.543,0,7.187-0.58,13.949-1.79,20.199-1.21,6.289-1.8,11.25-1.8,14.84,0,10.468,4.81,15.699,14.38,15.699,6.28,0,10.23-1.52,11.87-4.488,1.68-3.012,2.66-10.942,2.93-23.793,0.31-12.887,7.03-23.36,20.2-31.438,13.2-8.09,29.96-12.109,50.31-12.109,14.65,0,26.8,3.75,36.37,11.25,9.57,7.457,14.37,16.867,14.37,28.238,0,20.352-16.17,32.191-48.52,35.512-30.82,3.277-54.29,9.328-70.46,18.16-16.18,8.828-24.26,24.34-24.26,46.488,0,20.93,7.93,37.93,23.71,50.93,15.82,13.051,36.41,19.531,61.76,19.531"/><path id="path32" fill="#211c1d" d="m1447.7,354.19c-21.01,0-37.53-7.348-49.57-22-11.99-14.68-18.59-35.5-19.8-62.418v-5.864c0-28.117,5.94-50.187,17.81-66.207,11.84-16.011,28.44-24.019,49.77-24.019,21.91,0,39.1,8.008,51.56,24.019,12.46,16.02,18.71,38.239,18.71,66.68,0,59.879-22.81,89.809-68.48,89.809zm-2.46-210.16c-31.44,0-56.6,10.86-75.43,32.582-18.86,21.68-28.28,50.821-28.28,87.297,0,36.532,9.49,65.633,28.52,87.352,18.98,21.68,44.49,32.531,76.52,32.531,32.62,0,58.36-10.621,77.23-31.871s28.28-50.121,28.28-86.641c0-36.519-9.73-65.859-29.18-88.007-19.45-22.153-45.35-33.243-77.66-33.243"/><path id="path34" fill="#211c1d" d="m1650.7,362.47,0-12.781c17.97,22.742,41.92,34.101,71.88,34.101,16.13,0,31.41-4.101,45.78-12.34,14.38-8.242,24.06-18.48,29.18-30.742,4.18-10.199,6.29-23.519,6.29-39.961v-85.308c0-12.899,0.16-20.508,0.43-22.899,1.48-10.191,5.55-15.269,12.15-15.269,2.69,0,6.21,0.386,10.54,1.128,4.34,0.75,7.39,1.141,9.18,1.141,3.91,0,7.27-1.371,10.12-4.07,2.85-2.692,4.26-5.973,4.26-9.879,0-4.492-1.8-8.203-5.39-11.211-3.6-3.012-7.93-4.492-13.01-4.492-4.22,0-11.09,0.582-20.66,1.801-9.57,1.21-18.56,1.789-26.92,1.789-7.81,0-14.22-0.309-19.33-0.899-14.96-1.789-22.89-2.691-23.79-2.691-11.96,0-17.93,5.23-17.93,15.703,0,9.297,5.15,13.949,15.54,13.949,2.47,0,5.16-0.32,8.25-0.902,5.78-1.207,9.45-1.84,10.97-1.84,7.35,0,11.29,8.242,11.92,24.73v84.371c0,15.899-0.74,26.801-2.27,32.782-2.65,11.398-8.47,20.226-17.42,26.519-9.84,6.879-21.02,10.309-33.55,10.309-23.83,0-40.98-8.512-51.41-25.578-7.19-11.684-10.74-31.571-10.74-59.731v-59.691c0-13.199,0.89-22.18,2.69-26.949,1.8-4.801,5.08-7.192,9.88-7.192,2.39,0,5.67,0.512,9.89,1.571,4.18,1.05,7.61,1.601,10.31,1.601,9.26,0,13.91-5.043,13.91-15.082,0-9.73-5.98-14.57-17.97-14.57-2.39,0-10.16,0.902-23.32,2.691-6.6,0.899-13.95,1.328-22.03,1.328-6.25,0-14.65-0.578-25.12-1.789-13.17-1.488-20.67-2.23-22.46-2.23-12.58,0-18.87,5.082-18.87,15.269,0,9.571,4.88,14.383,14.65,14.383,1.52,0,4.33-0.473,8.48-1.371,4.1-0.898,8.12-1.371,12.11-1.371,9.14,0,13.86,8.711,14.17,26.062v119.88c-0.62,10.2-1.91,17.149-3.9,20.899-1.99,3.711-5.39,5.621-10.27,5.621-2.15,0-5.28-0.469-9.38-1.36-4.14-0.902-7.23-1.371-9.38-1.371-10.97,0-16.48,4.879-16.48,14.61,0,10.043,6.76,15.043,20.24,15.043,1.79,0,3.28-0.16,4.49-0.473l16.6-1.758c4.76,0,8.98,0.348,12.58,1.09,7.77,0.75,11.79,1.141,12.11,1.141,8.67,0,13-4.571,13-13.711"/><path id="path36" fill="#211c1d" d="m2654.4,217.47c0-17.582,1.75-27.973,5.39-31.25,2.65-2.699,6.21-4.34,10.54-4.93,4.34-0.582,14.14-0.891,29.42-0.891h39.49c20.62,0,34.41,2.77,41.33,8.2,6.83,5.468,10.31,16.48,10.31,33.011,0,4.411-0.16,9.571-0.47,15.508-0.59,11.52-0.9,18.43-0.9,20.781,0,13,5.24,19.489,15.71,19.489,12.57,0,18.86-5.981,18.86-17.969,0-3.559-0.11-6.41-0.43-8.52l-3.16-22.89c-0.9-6.602-1.33-13.469-1.33-20.66,0-4.18,0.35-10.391,1.13-18.629,0.75-8.25,1.14-14.461,1.14-18.641,0-13.43-7.66-20.191-22.93-20.191-2.97,0-9.89,0.511-20.67,1.562-7.19,0.508-18.24,1.059-33.2,1.559h-105.51c-7.19,0-19.18-0.578-35.94-1.789-2.38,0-6.52-0.199-12.34-0.672-5.82-0.43-10.39-0.66-13.67-0.66-12.58,0-18.87,5.39-18.87,16.172,0,9.57,4.61,14.339,13.91,14.339,2.42,0,5.97-0.429,10.78-1.332,4.76-0.898,8.4-1.367,10.78-1.367,15.27,0,22.89,11.25,22.89,33.668v180.08c0,22.149-7.62,33.199-22.89,33.199-4.22,0-7.34-0.269-9.41-0.89-4.81-0.899-8.87-1.328-12.15-1.328-3.87,0-7.19,1.398-9.89,4.258-2.65,2.851-4.02,6.359-4.02,10.539,0,10.472,6.45,15.742,19.3,15.742,1.8,0,4.02-0.153,6.76-0.461l23.78-2.699c13.17-1.52,22.9-2.27,29.18-2.27,7.78,0,17.35,0.75,28.72,2.27l20.66,2.699c2.38,0.308,4.34,0.461,5.86,0.461,13.48,0,20.19-5.27,20.19-15.742,0-4.18-1.36-7.688-4.06-10.539-2.65-2.86-5.97-4.258-9.88-4.258-3.01,0-6.99,0.429-12.11,1.328-2.11,0.621-5.23,0.89-9.41,0.89-15.28,0-22.89-10.968-22.89-33v-174.18"/><path id="path38" fill="#211c1d" d="m2995.6,235.2,0,31.879c-6.57-6.019-13.48-10.199-20.79-12.582-7.34-2.379-20.39-4.488-39.14-6.289-33.98-3.277-50.97-15.859-50.97-37.699,0-11.399,4.1-20.352,12.34-26.949,8.24-6.602,19.38-9.879,33.44-9.879,20.08,0,35.86,5.468,47.38,16.359,11.53,10.938,17.42,25.981,17.74,45.16zm50.31-89.371c-24.57,0-39.69,10.621-45.35,31.871-15.32-22.422-39.22-33.672-71.88-33.672-24.22,0-43.59,6.012-58.12,17.969-14.53,11.992-21.76,28.012-21.76,48.043,0,24.848,10.59,43.09,31.83,54.77,8.09,4.488,15.04,7.418,20.9,8.75,5.82,1.371,17.58,3.089,35.24,5.199,25.15,2.691,41.52,6.398,49.18,11.211,7.61,4.758,11.44,13.629,11.44,26.48,0,12.27-4.29,21.949-12.81,28.989-8.52,6.992-20.43,10.539-35.66,10.539-13.48,0-26.06-3.75-37.74-11.25-4.49-2.969-6.72-6.129-6.72-9.411,0-1.207,1.33-2.699,4.03-4.488,4.22-2.969,6.29-8.09,6.29-15.281,0-5.969-2.19-10.899-6.53-14.801-4.33-3.906-9.76-5.859-16.36-5.859-7.82,0-14.3,2.691-19.54,8.121-5.23,5.351-7.85,11.961-7.85,19.73,0,16.758,8.28,31.129,24.89,43.09,16.64,11.988,36.75,17.961,60.42,17.961,54.46,0,81.72-26.133,81.72-78.391v-90.511c0-14.34,0.28-22.848,0.86-25.508,1.8-10.473,6.92-15.699,15.28-15.699,10.46,0,15.74,9.527,15.74,28.547v21.839c0,9.493,4.53,14.262,13.67,14.262,9.73,0,14.57-7.191,14.57-21.57v-27.809c-0.59-28.75-15.86-43.121-45.74-43.121"/><path id="path40" fill="#211c1d" d="m3173.8,363.36,0-12.339c15.55,21.878,36.37,32.769,62.42,32.769,20.94,0,37.93-5.891,50.94-17.73,13.04-11.84,19.53-26.993,19.53-45.551,0-13.16-3.28-23.899-9.84-32.11-6.61-8.242-15.28-12.339-26.06-12.339-6.87,0-12.73,2.07-17.54,6.289-4.76,4.179-7.15,9.261-7.15,15.23,0,4.809,1.8,9.07,5.35,12.82,3.64,3.75,7.82,5.622,12.58,5.622,0.9,0,2.85-0.473,5.86-1.372,1.8,3.598,2.7,6.918,2.7,9.891,0,8.668-3.83,16.008-11.45,21.988-7.65,5.981-17.15,8.981-28.51,8.981-23.36,0-38.91-10.469-46.68-31.399-4.81-12.89-7.23-32.351-7.23-58.363v-29.648c0-20.078,0.16-31.289,0.47-33.668,1.52-17.071,6.17-25.633,14.06-25.633,3.91,0,8.01,0.551,12.23,1.562,3.32,0.789,6.17,1.18,8.59,1.18,9.69,0,14.49-4.73,14.49-14.18,0-10.32-6.13-15.472-18.39-15.472h-1.8c-4.49,0-11.29,0.511-20.43,1.562-9.1,1.059-15.94,1.559-20.43,1.559-11.95,0-21.41-0.27-28.28-0.891l-25.16-2.23c-12.26,0-18.4,5.23-18.4,15.703,0,9.297,5.75,13.949,17.23,13.949,3.01,0,5.27-0.16,6.8-0.473l6.79-1.367c3.01-0.582,5.12-0.902,6.33-0.902,7.54,0,11.64,6.922,12.27,20.672v22.89l-1.37,101.91c-0.9,17.699-5.39,26.519-13.48,26.519-2.38,0-5.66-0.391-9.88-1.133-4.18-0.738-7.46-1.129-9.84-1.129-9.93,0-14.85,4.731-14.85,14.18,0,10.313,6.45,15.473,19.3,15.473,3.01,0,7.5-0.391,13.48-1.141,5.97-0.742,10.47-1.09,13.47-1.09,2.39,0,6.29,0.348,11.68,1.09,2.39,0.75,5.24,1.141,8.52,1.141,7.77,0,11.68-4.301,11.68-12.821"/><path id="path42" fill="#211c1d" d="m3420.9,383.79c20,0,36.68-5.23,50.11-15.699v1.797c0,11.051,4.81,16.601,14.38,16.601,9.88,0,14.8-4.769,14.8-14.34,0-1.789-0.23-6.32-0.74-13.468-1.01-6.024-1.48-11.992-1.48-17.973,0-3.59,0.35-8.828,1.09-15.699,0.74-6.918,1.13-12.149,1.13-15.75,0-11.36-4.88-17.031-14.57-17.031-9.45,0-14.29,4.769-14.61,14.339v14.84c-0.31,8.992-5.46,16.684-15.54,23.133-10.08,6.399-21.88,9.649-35.43,9.649-13.83,0-25.39-3.559-34.73-10.551-9.3-7.028-13.94-15.778-13.94-26.289,0-19.141,13.2-30.508,39.61-34.102l26.13-3.598c51.05-6.91,76.56-28,76.56-63.32,0-21.558-8.2-38.98-24.65-52.301-16.36-13.32-37.89-20-64.41-20-24.81,0-46.29,7.032-64.49,21.129v-8.508c0-10.82-5.08-16.21-15.28-16.21-11.05,0-16.6,6.171-16.6,18.429,0-2.109,0.9,5.672,2.7,23.36,0.58,4.179,0.9,8.363,0.9,12.543,0,7.187-0.59,13.949-1.8,20.199-1.17,6.289-1.8,11.25-1.8,14.84,0,10.468,4.81,15.699,14.38,15.699,6.29,0,10.23-1.52,11.87-4.488,1.64-3.012,2.66-10.942,2.93-23.793,0.27-12.887,7.03-23.36,20.2-31.438,13.2-8.09,29.96-12.109,50.31-12.109,14.65,0,26.8,3.75,36.37,11.25,9.57,7.457,14.37,16.867,14.37,28.238,0,20.352-16.17,32.191-48.51,35.512-30.82,3.277-54.34,9.328-70.47,18.16-16.18,8.828-24.26,24.34-24.26,46.488,0,20.93,7.89,37.93,23.71,50.93,15.82,13.051,36.41,19.531,61.76,19.531"/><path id="path44" fill="#211c1d" d="m3641.8,383.79c20,0,36.71-5.23,50.11-15.699v1.797c0,11.051,4.81,16.601,14.38,16.601,9.88,0,14.8-4.769,14.8-14.34,0-1.789-0.23-6.32-0.74-13.468-1.01-6.024-1.48-11.992-1.48-17.973,0-3.59,0.35-8.828,1.09-15.699,0.74-6.918,1.13-12.149,1.13-15.75,0-11.36-4.84-17.031-14.57-17.031-9.45,0-14.29,4.769-14.61,14.339v14.84c-0.31,8.992-5.47,16.684-15.54,23.133-10.08,6.399-21.88,9.649-35.43,9.649-13.83,0-25.39-3.559-34.73-10.551-9.34-7.028-13.98-15.778-13.98-26.289,0-19.141,13.24-30.508,39.64-34.102l26.14-3.598c51.05-6.91,76.56-28,76.56-63.32,0-21.558-8.2-38.98-24.61-52.301-16.45-13.32-37.89-20-64.45-20-24.81,0-46.29,7.032-64.5,21.129v-8.508c0-10.82-5.07-16.21-15.27-16.21-11.05,0-16.6,6.171-16.6,18.429,0-2.109,0.9,5.672,2.7,23.36,0.58,4.179,0.89,8.363,0.89,12.543,0,7.187-0.58,13.949-1.79,20.199-1.21,6.289-1.8,11.25-1.8,14.84,0,10.468,4.77,15.699,14.37,15.699,6.29,0,10.24-1.52,11.92-4.488,1.6-3.012,2.62-10.942,2.89-23.793,0.31-12.887,7.03-23.36,20.19-31.438,13.17-8.09,29.97-12.109,50.32-12.109,14.65,0,26.75,3.75,36.33,11.25,9.6,7.457,14.37,16.867,14.37,28.238,0,20.352-16.13,32.191-48.48,35.512-30.82,3.277-54.29,9.328-70.47,18.16-16.17,8.828-24.25,24.34-24.25,46.488,0,20.93,7.89,37.93,23.71,50.93,15.82,13.051,36.4,19.531,61.76,19.531"/><path id="path46" fill="#211c1d" d="m3874,354.19c-21.01,0-37.54-7.348-49.57-22-11.99-14.68-18.59-35.5-19.8-62.418v-5.864c0-28.117,5.94-50.187,17.77-66.207,11.88-16.011,28.48-24.019,49.81-24.019,21.91,0,39.1,8.008,51.56,24.019,12.46,16.02,18.67,38.239,18.67,66.68,0,59.879-22.81,89.809-68.44,89.809zm-2.5-210.16c-31.4,0-56.56,10.86-75.43,32.582-18.82,21.68-28.28,50.821-28.28,87.297,0,36.532,9.53,65.633,28.52,87.352,19.02,21.68,44.53,32.531,76.56,32.531,32.62,0,58.36-10.621,77.23-31.871,18.86-21.25,28.28-50.121,28.28-86.641,0-36.519-9.73-65.859-29.18-88.007-19.45-22.153-45.35-33.243-77.7-33.243"/><path id="path48" fill="#211c1d" d="m4071.8,362.47,0-12.781c17.97,22.742,41.91,34.101,71.83,34.101,16.17,0,31.45-4.101,45.78-12.34,14.38-8.242,24.11-18.48,29.22-30.742,4.18-10.199,6.25-23.519,6.25-39.961v-85.308c0-12.899,0.2-20.508,0.47-22.899,1.53-10.191,5.55-15.269,12.11-15.269,2.7,0,6.21,0.386,10.59,1.128,4.29,0.75,7.38,1.141,9.18,1.141,3.86,0,7.26-1.371,10.11-4.07,2.86-2.692,4.26-5.973,4.26-9.879,0-4.492-1.8-8.203-5.39-11.211-3.59-3.012-7.93-4.492-13.01-4.492-4.22,0-11.09,0.582-20.66,1.801-9.57,1.21-18.56,1.789-26.95,1.789-7.78,0-14.22-0.309-19.3-0.899-14.96-1.789-22.89-2.691-23.79-2.691-11.95,0-17.97,5.23-17.97,15.703,0,9.297,5.2,13.949,15.59,13.949,2.42,0,5.15-0.32,8.24-0.902,5.78-1.207,9.41-1.84,10.98-1.84,7.3,0,11.28,8.242,11.91,24.73v84.371c0,15.899-0.78,26.801-2.27,32.782-2.65,11.398-8.47,20.226-17.42,26.519-9.84,6.879-21.01,10.309-33.51,10.309-23.91,0-41.06-8.512-51.49-25.578-7.15-11.684-10.74-31.571-10.74-59.731v-59.691c0-13.199,0.94-22.18,2.73-26.949,1.76-4.801,5.08-7.192,9.89-7.192,2.38,0,5.66,0.512,9.84,1.571,4.18,1.05,7.66,1.601,10.31,1.601,9.3,0,13.95-5.043,13.95-15.082,0-9.73-5.98-14.57-17.97-14.57-2.38,0-10.16,0.902-23.32,2.691-6.6,0.899-13.95,1.328-22.03,1.328-6.29,0-14.65-0.578-25.12-1.789-13.16-1.488-20.66-2.23-22.46-2.23-12.58,0-18.87,5.082-18.87,15.269,0,9.571,4.89,14.383,14.65,14.383,1.53,0,4.34-0.473,8.48-1.371,4.1-0.898,8.12-1.371,12.11-1.371,9.14,0,13.87,8.711,14.18,26.062v119.88c-0.63,10.2-1.96,17.149-3.91,20.899-1.95,3.711-5.43,5.621-10.27,5.621-2.15,0-5.28-0.469-9.38-1.36-4.14-0.902-7.26-1.371-9.37-1.371-11.02,0-16.49,4.879-16.49,14.61,0,10.043,6.72,15.043,20.24,15.043,1.76,0,3.28-0.16,4.45-0.473l16.64-1.758c4.77,0,8.95,0.348,12.54,1.09,7.81,0.75,11.84,1.141,12.15,1.141,8.67,0,13.01-4.571,13.01-13.711"/><path id="path50" fill="#5dc9e8" d="m2125.5,288.64c-11.41-5.43-20.67-11.328-27.85-17.66-16.49-14.18-24.69-32.11-24.69-53.789,0-16.872,5.31-30.54,15.94-40.93,10.62-10.399,24.45-15.59,41.52-15.59,25.43,0,45.94,10.391,61.52,31.211-20.07,25.898-35.78,47.617-47.14,65.078-7.19,11.172-13.64,21.723-19.3,31.68zm241.09-23.129c-10.47-10.93-23.51-16.399-39.06-16.399-11.41,0-20.66,2.848-27.85,8.508-7.19,5.711-10.74,13.211-10.74,22.461,0,14.379,6.25,21.57,18.82,21.57,10.79,0,16.18-4.929,16.18-14.808,0-1.211-0.75-3.594-2.23-7.192,4.18-0.621,6.56-0.89,7.19-0.89,5.66,0,10.58,2.379,14.8,7.18,4.18,4.769,6.29,10.628,6.29,17.5,0,8.679-2.77,15.628-8.32,20.859-5.55,5.242-13.09,7.891-22.66,7.891-15.58,0-28.32-8.59-38.2-25.739-8.05-13.871-17.93-36.871-29.61-69.062-6.29-17.457-12.11-30.981-17.5-40.629,12.85-14.449,23.63-24.059,32.31-28.86,8.71-4.851,19.61-7.23,32.81-7.23,2.66,0,6.64,0.43,11.87,1.328,5.24,0.902,9.18,1.363,11.88,1.363,12.26,0,18.44-5.543,18.44-16.64,0-10.461-6.29-15.699-18.87-15.699h-43.56c-20.66,0-42.65,12.269-65.97,36.839-8.09-9.3-15-15.902-20.67-19.769-18.55-12.852-39.96-19.301-64.21-19.301-27.23,0-49.54,8.207-66.92,24.688-17.34,16.453-26.01,37.703-26.01,63.75,0,35.043,14.64,61.8,43.98,80.39,9.88,6.289,19.02,11.492,27.38,15.711l5.39,2.692c-15.86,28.707-23.79,51.796-23.79,69.136,0,17.973,6.22,32.461,18.6,43.563,12.34,11.051,28.71,16.597,48.98,16.597,21.17,0,37.89-5.238,50.12-15.699,12.23-10.469,18.36-24.687,18.36-42.66,0-33.238-21.41-60.898-64.22-83.051l4.92-8.078c8.13-13.48,22.46-34.89,43.13-64.219l4.96-6.293,2.65,7.653,17.54,46.25c20.94,55.039,50.75,82.578,89.34,82.578,17.97,0,32.46-5.149,43.55-15.469,11.06-10.351,16.61-23.898,16.61-40.621,0-15.898-5.24-29.301-15.71-40.199zm-170.7,277.23c-147.11,0-266.37-119.26-266.37-266.37s119.26-266.36,266.37-266.36,266.37,119.25,266.37,266.36-119.26,266.37-266.37,266.37zm-8.01-158.95c0,9.609-2.89,17.309-8.75,23.168-5.82,5.82-13.67,8.75-23.55,8.75-9.3,0-16.76-2.66-22.46-7.891-5.71-5.238-8.52-12.187-8.52-20.859,0-11.367,6.56-30.078,19.73-56.129,29.06,13.75,43.55,31.442,43.55,52.961"/></g></g></g></g></svg>
