<?xml version="1.0" encoding="UTF-8" standalone="no"?>
<!-- Created with Inkscape (http://www.inkscape.org/) -->
<svg id="svg2" xmlns:rdf="http://www.w3.org/1999/02/22-rdf-syntax-ns#" xmlns="http://www.w3.org/2000/svg" xml:space="preserve" height="196.16" width="1046.1" version="1.1" xmlns:cc="http://creativecommons.org/ns#" xmlns:dc="http://purl.org/dc/elements/1.1/"><metadata id="metadata8"><rdf:RDF><cc:Work rdf:about=""><dc:format>image/svg+xml</dc:format><dc:type rdf:resource="http://purl.org/dc/dcmitype/StillImage"/><dc:title/></cc:Work></rdf:RDF></metadata><g id="g10" transform="matrix(1.25,0,0,-1.25,0,196.1625)"><g id="g12" fill-rule="nonzero" fill="#040606" transform="scale(0.1,0.1)"><path id="path14" d="m5203.9,583.74,3.61-4.383,4.62-3.312,5.31-1.981,0.07-0.011,5.64-0.535,5.59,0.957,5.15,2.363,4.35,3.641-0.07,0.011-4.75-1.25-4.89-0.144-4.73,0.992-4.46,2.082-3.85,3.035-3.08,3.867-2.11,4.453-1.05,4.836,0.08,4.95,1.2,4.796,2.25,4.395,3.2,3.758-0.08,0-5.16-2.371-4.35-3.633-3.29-4.668-1.96-5.344-0.55-5.683,0.96-5.625,2.35-5.196"/><path id="path16" d="m2353.1,835.9,0.44-0.07,0,2.91-0.44,0.078,0.02,4.543-0.29,0.067-0.01-4.551-0.45,0.078,0-2.937,0.44-0.071-0.02-14.5,0.14,0,0.14-0.019,0.03,14.472"/><path id="path18" d="m2639.5,840.07,0.27,0.09,0,3.328-0.28-0.105-0.01,5.156-0.18-0.078,0.01-5.137-0.28-0.109,0.01-3.301,0.27,0.098,0.03-16.387,0.09,0.02,0.08,0.011-0.01,16.414"/><path id="path20" d="m2331,839.98,6.45,0,0,3.309-6.44-0.008,0,5.137-4.12,0-0.01-5.137-6.46,0,0-3.301,6.45,0-0.04-16.367,4.13,0,0.04,16.367"/><path id="path22" d="m2629.4,835.97,5.71,0,0,2.926-5.71,0,0,4.543-3.67,0,0-4.543-5.72,0,0.02-2.926,5.7,0,0.04-14.516,3.65,0-0.02,14.516"/><path id="path24" d="m2057.3,1072.5,0.23,1.13,6.76-0.02,0,1.51-6.53,0.02,0,1.16-0.23-1.16-6.76,0.02-0.01-1.51,6.54-0.02,0-1.13"/><path id="path26" d="m2070,915.18,15.81-1.699-4.26,11.121-4.25,11.105-5.6,56.297-3.56,5.469-5.95,0.859-8.74,0.02-6.37-0.821-3.48-5.457-5.59-56.289-0.32-0.84-3.86-10.265-4.18-11.094,16.93,1.641,23.42-0.047"/><path id="path28" d="m2054.8,999,5.83-0.012,0.42-0.066,3.12-0.449-3.27,29.753-1.65,30.27-0.79,0.24-1.69,0-0.9-0.22-1.72-30.27-3.37-29.766,3.52,0.45,0.5,0.07"/><path id="path30" d="m8369.1,230.63-4.7,8.156,0,11.531-6.65,0-17.05,29.543,5.02,25.203,2.65,26.153,0,0.422,0.15,25.918,0,0.261-2.36,26.114-4.83,25.773-7.27,25.207-9.65,24.391-0.12,0.238-11.99,23.465-14.18,22.187-16.23,20.711-18.12,19.024-19.84,17.187-21.36,15.156-0.82,0.489-22.62,12.968-23.71,10.684-0.95,0.371-24.38,8.235-1,0.281-1.22,0.293-24.28,5.586-0.99,0.195-1.14,0.187-1.28,0.184-1.42,0.188-22.22,2.703-0.79,0.082-0.86,0.093-0.91,0.079-0.98,0.078-1.03,0.07-1.08,0.066-1.14,0.059-1.18,0.07-1.23,0.039-1.27,0.059-1.31,0.039-1.33,0.047-1.36,0.031-1.39,0.02-1.4,0.027-1.43,0.012-1.42,0.008-2.89,0-1.44-0.008-1.44-0.012-1.41-0.027-1.41-0.02-1.38-0.031-1.37-0.039-1.33-0.047-1.3-0.051-1.27-0.047-1.22-0.07-1.18-0.047-1.13-0.07-1.09-0.078-1.02-0.078-0.97-0.079-0.92-0.078-0.85-0.097-0.78-0.086-22.26-2.785-1.41-0.184-1.27-0.187-1.12-0.196-0.99-0.195-24.28-5.66-1.21-0.305-0.97-0.285-24.35-8.301-0.94-0.379-23.68-10.73-22.58-13.012-0.78-0.488-21.31-15.184-19.79-17.168-18.08-19.015-16.19-20.653-14.15-22.129-11.98-23.371-9.72-24.41-7.14-24.504-59.11,115.62,0.13,40.82-5.21,12.793-4.97,88.582-5.45-88.3-5.22-12.45-0.1-38.183-53.94-0.176-1.28,78.563-0.38,0.011-0.62,0-0.22-0.011-1.62-78.575-136.79-0.437-0.75,79.101-0.37,0.008-0.61,0-0.25-0.008-0.9-79.101-60.83-0.188-0.3,4.399-0.3-4.399-186.21-0.593-0.33,5.117-0.31-5.117-105.3-0.332-1.26-49.852-0.32,140.59-4.94,12.371-0.18,76.66-0.23,0.098-0.54,235.06-0.65,1.555-1.31,0.195-12.05,113.05-0.47,0.14-0.04,12.85,1.9,1.4,0,2.23-2.38,1.78-2.37-1.73,0-2.23,2.12-1.59,0.03-12.7-0.26,0-0.42-0.12-1.35-13.15-2.96,31.29-0.06,0.16-0.39,0.05-0.03,13.41,1.77,1.27-0.02,2.35-0.14,0.44-2.07,1.63-2.22-1.58,0.01-2.34,0.15-0.45,1.66-1.32,0.03-13.39-0.47-0.05-10.82-117.8-0.09-0.012-38.39,407.9,0.62-0.01-0.05,17.24,0.56-0.01,0.13,0.31,0.05,1.97-0.07,2.41-0.12,1.33-0.29,0-0.28,1.12-0.02,8.11,0.05,1.91-0.05,2.43-0.14,1.45-2.93,0.06-0.12-0.44-0.04-2.05,0.07-2.39,0.01-4.87-0.57,0-0.15-0.3-0.04-1.99,0.06-2.42,0.14-1.35,0.28,0,0.3-1.11,0.06-20.49,0.24-0.87,0.36-0.01-36.32-400.83-9.16,93.3-0.09,0.16-0.39,0.05-0.05,12.82,1.8,1.25-0.01,2.26-0.24,0.41-1.95,1.57-2.17-1.53,0.01-2.24,0.23-0.42,1.51-1.22,0.05-12.89-0.44-0.04-3.29-35.3-5.78,53.53-0.59,0.16-0.1,0-0.05,13.32,2.19,1.6-0.01,2.36-2.5,1.86-2.48-1.82,0-2.34,2-1.51,0.05-13.45-0.09,0-0.41-0.15-11.89-117.37-2.76-0.371,0.9-248.49-0.56,0,0.29-81.376-5.51-13.32,0.51-143.19-71.43,11.414-18-3.399-0.96,0.379-12.48,2.082,0.19,12.637-0.6,6.367-2.63,5.977-4.48,5.156-6.02,3.984-0.9,0.403-6.39,2.246,0.4,25.691-8.9,7.821,0.06,0.011,0.12,0.02,2.06,0.535,0.56,0.176,1.92,1.894,0.71,2.617-0.65,2.598-1.84,1.914-0.19,0.168-1.87,0.586-0.26,0.039,0.37,26.121-1.34-0.097-0.38-26.114-2.02-0.711-1.89-1.906-0.72-2.598,0.64-2.617,1.85-1.902,0.2-0.168,2.37-0.535,0.09-0.02,0.13-0.011-9.11-7.743-0.36-26.015-7.15-2.676-1.14-0.781,0.06,4.765-12.84,12.266,0.1,0,0.15,0.02,0.07,0.019,2.61,0.715,0.71,0.183,2.47,2.469,0.93,3.371-0.86,3.36-2.38,2.468-0.27,0.208-2.4,0.761-0.34,0.039,0.42,33.778-1.71-0.125-0.43-33.75-2.61-0.911-2.46-2.468-0.93-3.371,0.84-3.368,2.4-2.461,0.26-0.195,3.07-0.722,0.11-0.02,0.16-0.012,0.02,0-13.06-14.566-0.28-22.246-6.98-0.012-5.04-1.211-4.53-2.676-7.02-5.761-4.46-4.532-3.17-5.304-1.67-5.719-0.15-13.176-7.03-5.168-181.59-0.035,0.06,0.176,0.37,135.77-4.07-0.304-0.01-0.938-8.58-0.781-4.54-2.422-3.02-3.027-2.95-5.645-3.43-9.715,6.87-1.465,10.05,0.79,2.87,3.378,1.5,3.789,1.2,1.934-0.31-121.54-160.92-0.039-3.32,5.164-0.06,13.152-1.56,5.727-2.98,5.301-3.74,6.328-3.92,3.945-4.77,2.664-5.33,1.223-8.81-0.008-0.14,22.242-1.41,2.309-10.92,12.254,0.16,0.008,0.12,0.011,2.97,0.723,0.37,0.195,2.41,2.473,0.87,3.355-0.91,3.371-2.45,2.461-2.59,0.907-0.23,33.73-1.66,0.129,0.22-33.762-0.37-0.039-2.33-0.761-0.36-0.204-2.41-2.472-0.86-3.367,0.91-3.36,2.44-2.461,0.6-0.195,2.77-0.723,0.13-0.019,0.13,0-12.28-12.254,0.17-24.563-11.63,0-5.8-1.152,0,0.039-0.73,6.367-2.73,5.985-4.54,5.226-6.04,4.082-1.09,0.418-6.03,2.258-0.24,26.004-9.08,7.734,0.13,0,0.08,0.012,2.33,0.547,0.26,0.176,1.84,1.902,0.66,2.609-0.71,2.61-1.88,1.902-2.02,0.691-0.24,26.106-1.3,0.086,0.23-26.102-0.26-0.039-1.82-0.578-0.26-0.164-1.87-1.902-0.65-2.61,0.72-2.609,1.88-1.902,0.52-0.176,2.1-0.547,0.11-0.012,0.07,0-8.93-7.832,0.25-25.73-6.07-2.188-1.05-0.39-5.97-4.004-4.48-5.149-2.61-5.976-0.62-6.356,0.13-12.687-1.6-0.274-6.86,1.274-132.95-21.899,8.62,426.4,6.79,1.277,0.02,0.547-1.4,0,1.4,0.285-9.53,0.028-0.88,0.058-3.57,0.473-3.06,0.691,0.43,21.238-1.27,2.735-0.7,2.734-0.01,21.895-0.12,16.457-0.02,0,0.37,0.008,0.82,2.531,0.66-0.07,0.97,0.05-0.74,2.813,0.85,2.668-1.59,0.164-0.74,2.82-0.95-0.058-0.81-2.528-0.7,0.067-0.93-0.047,0.74-2.825-0.85-2.656,1.59-0.156,0.73-2.812,0.36,0,0-0.184-0.77-16.25-0.88-21.906-0.8-2.743-1.39-2.753-0.38-19.336-4.16,1.785-4.21,2.258-4.09,2.644-3.89,3.02-3.73,3.386-3.53,3.711-3.11,3.821,0,0.027-0.18,1.836-0.12,0.019-0.02,0.207,0,0.379,0,0.579,0.23,1.386,0,0.469,0.33,0.965,0.4,1.281,0.02,0.645-0.03,0.066,0,0.312-0.03,0.059,0,0.324-0.06,0.059,0.02,0.332-0.37,0.535-0.02,0,0.02,0.266-0.17,1.894-0.15,0.028,0.18,9.589,0.66,0.157,0.03,2.043,0.39,0.086,0.27,0.07,0.06,2.156-5.96,0.031,0.01,0.352-1.75,0.145-0.31,0.265-0.21,0.215,0.23,0.039,0,2.344,0.26,1.719,0.04,0.125,0,0.187,0.04,0.156,0,0.137,0.16,3.027-0.04,1.258,2.51,0.11-1.29,2.597,1.4,2.727-0.54,0.054-1.87-0.105-0.05,0.312-0.02,0.957-0.67,1.348-0.06,0-0.21,0.039-0.03,0.125,0.06,0.078,0.03,0.118,0.32-0.086,0.09,0.136,0.09,0.547,0.02,0.235,0.1,0.058-0.08,0.028,0.01,0.292,0.09,0.149,0.09,0.183,0.15,1.223-0.73,0.242-0.35,0.059-0.38,0.051,2.38,124.54,0.3,1.09,0.01,1.09-0.26,1.09,0.4,0.57,7.97,1.38,0.02,1.08-0.15,3.04-13.23,6.39-0.18,1.62,0.24,1.66,0.32,1.64,0.49,1.65-0.17,1.64-0.53,1.63,0.23,1.64,0.26,1.65,0.92,1.66-0.25,1.64-1.08,1.63-0.72,1.62-0.37,1.64-0.17,1.64-0.11,1.64-0.14,0,0-0.02-0.16-1.62-0.2-1.49-0.02-0.15-0.06-0.19-0.4-1.47-0.77-1.66-1.14-1.66-0.32-1.64,0.86-1.63,0.19-1.64,0.16-1.64-0.57-1.66-0.23-1.64,0.42-1.64,0.25-1.63,0.19-1.64-0.03-0.1-6.74,3.25,0.11,5.49-3.2,3.21-3.02,3.47-2.91,3.71-2.73,3.93-2.57,4.16-2.39,4.35-2.23,4.55-2.06,4.72-1.83,4.91-1.65,5.04-1.47,5.19-7.7,4.79-1.95,0.02,0.32,0.04,0.72,0.12,0.46,0.12,0.15,0.13,1.15,2.2,3.65,3.55-0.03,0.03,3.58,4.18,4.31,5.24,0.42,0.57,0.41,0.55,0.42,0.57,0.42,0.55,0.39,0.51,0.37,0.48,0.34,0.44,0.3,0.38,0.26,0.32,0.2,0.25,0.17,0.18,0.09,0.12,0.98,1.31-0.64,5.66-1.61,1.7-0.72,0.55-2.09,1.39-1.85,1.75-1.92,1.98-1.83,2.06-1.73,2.16-1.64,2.21-1.54,2.31-1.43,2.37-1.34,2.41-1.22,2.5,0.85,46.74,0.59,2.21,0.66,0.8,1.7,0.85,1.49,0.86,0.2,0.21,0.57,0.88-0.53,0.88-0.81,0.85-0.81,0.86-0.17,0.15-1.03,0.82-1.36,0.75-1.11,1.7-0.03,0.03-0.09,0.02-0.13,0.02-0.09,0.02,1.01,56.53,2.52,0.8,2.97,0.91,2.97,0.88,2.99,0.84,2.99,0.83,3,0.79,3.01,0.77,3.02,0.73,3.02,0.7,3.02,0.68,3.05,0.65,3.1,0.63,0.02,0.01,0.28,0.24,1.28,1.09,0.9,0.77,0.64,0.54,1.53,1.28,0.61,0.5,0.91,0.76,0.97,0.78,0.6,0.49,1.56,1.24,0.55,0.44,1.01,0.78,1.02,0.8,0.57,0.43,1.58,1.23,1.59,1.19,1.53,1.13,0.06,0.04,0.12,0.1,1.5,1.09,0,0.03-0.01,0.04-0.02,0.05-0.03,0.06,8.9,0.48,0.55,2.27,0.05,0,0.13,0.51-0.05,0.03,0.66,2.8,1.54,0.66,0.24,1.59-0.23,0.14-5.97,0.53-0.01-1.49,0.23-0.15,0.52,0.04-0.76-0.83-4.4-0.25,1.79,2.38-2.99,2.29-0.24,0.14-3.08-2.64,1.79-2.31-4.64-0.27-0.75,0.74,0.92,0.04,0.03,1.5-0.24,0.14-5.96-1.19,0.17-1.55,0.25-0.15,1.28-0.41,0.55-2.62-0.08,0,0.1-0.49,0.06-0.05,0.48-2.24,0.22-0.14,8.1,0.45-1.11-0.81-1.6-1.19-1.6-1.21-1.6-1.21-1.57-1.22-1.58-1.25-1.56-1.24-1.55-1.26-1.55-1.27-1.52-1.28-1.53-1.29-1.45-1.25-2.97-0.6-3.03-0.65-3.02-0.67-3.03-0.71-3.02-0.73-3.02-0.77-3-0.8-3.01-0.82-2.99-0.85-2.49-0.74-0.51-0.16-0.59-0.18-2.37-0.72-2.3-0.73,0.14,8.25,8.43,0.45,0.54,2.25,0.04,0.01,0.11,0.5-0.04,0.03,0.67,2.78,1.51,0.68,0.24,1.56-0.24,0.14-5.89,0.54-0.04-1.48,0.24-0.16,0.51,0.04-0.77-0.83-4.34-0.22,1.78,2.35-2.97,2.26-0.25,0.16-3.06-2.62,1.81-2.31-4.61-0.25-0.74,0.73,0.89,0.05,0.04,1.49-0.24,0.15-5.91-1.19,0.18-1.56,0.24-0.14,1.27-0.41,0.52-2.61-0.05-0.01,0.09-0.48,0.07-0.05,0.47-2.22,0.23-0.14,8.19,0.44-0.15-8.25-2.34,0.49-2.94,0.6-2.93,0.57-2.94,0.52-2.94,0.49-2.95,0.48-2.94,0.45-2.98,0.41-2.94,0.38-2.98,0.35-2.95,0.31-2.88,0.29-1.41,1.07-1.48,1.12-1.5,1.13-1.51,1.08-1.51,1.1-1.52,1.06-1.52,1.06-1.54,1.05-1.55,1.03-1.55,1.02-1.57,1.01-1.08,0.68,8.27,0.46,0.52,2.24,0.06,0,0.12,0.5-0.04,0.03,0.63,2.79,1.5,0.66,0.25,1.55-0.25,0.15-5.87,0.55-0.02-1.5,0.24-0.15,0.5,0.03-0.76-0.82-4.29-0.22,1.76,2.34-2.96,2.27-0.24,0.16-3.04-2.62,1.79-2.31-4.55-0.25-0.73,0.73,0.89,0.05,0.03,1.48-0.25,0.14-5.87-1.18,0.18-1.54,0.26-0.15,1.22-0.41,0.55-2.59-0.07-0.01,0.1-0.49,0.08-0.03,0.46-2.23,0.24-0.15,8.46,0.47-0.01-0.05,0-0.05,0.01-0.05,0.02-0.02,1.58-0.99,1.56-1,1.54-1.02,1.54-1.02,1.55-1.05,1.52-1.06,1.51-1.06,1.5-1.09,1.5-1.09,1.5-1.12,1.48-1.11,1.52-1.18,0.05-0.01,3.04-0.3,2.98-0.3,2.95-0.36,2.95-0.38,2.96-0.41,2.94-0.44,2.94-0.47,2.94-0.5,2.94-0.53,2.92-0.58,2.93-0.57,2.39-0.53-0.99-56.52-0.12,0-0.13-0.03-0.1-0.03-0.35-0.55-0.81-1.21-1.43-0.84-1.08-0.89-0.82-0.85-0.8-0.88-0.19-0.2-0.56-0.88,0.53-0.87,0.25-0.18,1.47-0.81,1.58-0.76,0.66-0.79,0.88-0.85-1.19-48.06-1.32-2.54-1.42-2.48-1.52-2.44-1.61-2.37-1.73-2.28-1.81-2.22-1.9-2.14-1.71-1.79-1.86-1.76-2.65-1.82-0.55-0.57-1.66-1.77-0.84-5.67,0.92-1.29,0.12-0.09,0.17-0.18,0.23-0.25,0.26-0.3,0.31-0.38,0.34-0.41,0.37-0.47,0.38-0.49,0.4-0.54,0.41-0.54,0.39-0.56,0.39-0.54,4.09-5.06,3.35-4-0.1-0.08,3.53-3.41,1.08-2.15,0.18-0.13,0.49-0.1,0.71-0.08-1.72-0.74-7.85-6.02-1.62-5.41-1.83-5.29-2.01-5.17-2.19-5.01-2.35-4.88-2.54-4.69-2.67-4.5-2.83-4.31-2.98-4.1-3.13-3.88-3.23-3.64-0.08-4.67-6.66-2.31,0.08,0.4,0.29,1.63,0.49,1.63-0.16,1.62-0.53,1.61,0.22,1.62,0.26,1.64,0.89,1.64-0.26,1.62-1.06,1.61-0.69,1.6-0.39,1.62-0.17,1.58,0,0.04-0.09,1.61-0.03,0-0.01,0.02-0.05,0-0.04-0.02-0.03,0-0.14-1.62-0.24-1.63-0.43-1.63-0.77-1.64-1.1-1.64-0.32-1.63,0.86-1.61,0.19-1.62,0.16-1.61-0.57-1.64-0.23-1.63,0.43-1.61,0.26-1.61,0.14-1.4-14.5-5.03-0.02-1.09,0.98-3,7.19-0.94,0.4-0.62-0.28-1.09-0.02-1.09,0.25-1.08,0.14,0.14-1.98-118.54-0.34-0.012-1.27,2.598-0.57,0.058-1.39-2.832-2.7-0.117,1.3-2.676-1.39-2.82,0.56-0.059,2.18,0.106,1.25-2.598,0.23-0.019-0.02,0-0.03-0.008,0-0.031-0.09-1.922-0.04-0.196,0-0.519-0.03-0.965-0.26-1.047,0.06-0.047,0-0.05,0.15,0-0.51-11.715-0.01-0.344-0.26-0.031-0.22-0.106-3.72,0.02-2.89-0.754-0.03-2.156,0.64-0.012-0.02-2.129,0.65,0-0.17-10.957-0.51-0.047,0-0.539,0.39-0.75,0-0.742-0.31-0.5-0.39-0.555-0.01-0.637,0.35-1.269,0.29-0.957-0.01-0.477,0.08-0.578-0.05-2.664-0.51-0.066,0-0.531,0.48-0.879,0-0.145-0.49-0.059-2.34-6.23-3.51-4.113-3.69-3.778-3.81-3.437-3.94-3.067-4.07-2.687-3.61-2.012,0.27,17.563-1.23,2.644-0.67,2.637-0.1,21.297-0.16,15.988-0.02,0,0.34,0.02,0.83,2.468,0.76-0.066,0.89,0.039-0.76,2.742,0.87,2.59-1.64,0.145-0.77,2.746-0.91-0.051-0.81-2.461-0.78,0.07-0.89-0.039,0.75-2.754-0.83-2.589,1.62-0.145,0.77-2.727,0.33,0.012,0-0.176-0.68-15.82-0.76-21.301-0.76-2.664-1.34-2.676-0.3-19.726-16.03-3.547,1.17,0-1.18-0.262,0-0.539,6.34-0.008-4.57-291.14-0.49-0.41-5.85-3.75-2.6-3.75-0.04-3.758,2.47-3.77,2.64-3.593-11.82-0.118-0.04-2.519-9.14,0-2.41-10.313-0.18-11.73-52.02,4.465-487.83-0.684-1.96,15.672,0.01,0.734-1.02,28.582-0.02,0.02-0.86,0,0-0.02-1.21-28.582,0-0.734-2.07-15.672-25.43-0.051,0.13,1.692,1.25,1.961-2.05,16.398,0,0.692-0.97,26.894,0,0.012-0.84,0-1.11-26.895,0-0.683-2.15-16.399,1.26-1.98,0.12-1.692-118.8-0.156-19.12-0.039-11.94,2.18-0.01,21.758-0.89,0,0.01-21.602-72.47,13.164-0.01,4.883-1.05,0.262-6.99,0.039,0,2.511,1.54,0,0.34,0.059-0.1,41.875-0.81,0.027-1.09,0,0,2.676,1.33,0.02,0.37,0.031-0.5,1.883-0.52,1.906-1.53,1.895-2.38,1.894-5.26,1.902,2.47,1.895,0.33,1.894,0.28,1.907,0.28,1.894-0.34,1.895-1.36,1.902-1.7,1.906-2.22,1.903-3.23,1.894-0.68,1.906,0.91,7.586-1.09,7.61-0.74,7.597-0.47,7.606-0.27,7.617-0.35,7.609-0.22,7.625-0.18,7.618,0.13,1.515-0.24,1.524,0,0,0.16-1.524-0.12,0-0.06,1.524-0.05,0-0.08-1.524-0.12,0,0.18,1.524-0.01,0-0.2-1.524,0.13-1.515-0.13-7.618-0.2-7.617-0.3-7.617-0.21-7.605-0.44-7.618-0.7-7.597-1.05-7.59,0.95-7.606-0.67-1.906-3.22-1.894-2.2-1.903-1.69-1.906-1.35-1.902-0.34-1.895,0.3-1.894,0.3-1.907,0.33-1.894,2.49-1.895-5.26-1.902-2.36-1.894-1.53-1.895-0.51-1.906-0.5-1.895,0.86-0.019,0.85-0.02,0-2.695-1.52,0-0.37-0.02,0.14-41.894,0.79-0.067,1.1,0,0-2.492-7.94-0.078,0.01-4.852-124.31-0.136-12.96,2.156-62.58-10.516,0.4,30.555-0.42,0.078-1.73,0.059-3,0.07-4.2,0.039-5.29,0.047-58.05,0.031-52.43,29.082-300.91,0.489,0.02,16.738-23.87,0.047-0.03-16.746-6.26,0,0.02,16.765-23.93,0.051-0.01-16.769-27.91,0.039-10.61,13.652-9.16,17.941-5.64,19.364-0.6,6.203,1.29,1.562,3.28,4.051,0.5,3-1.06,2.859-2.33,1.934-0.57,0.422-2.36,0.422-2.69,0.426-3.52,0.332-4.72,0.253-0.83,0.04,0,1.828,2.06,3.496,0.86,2.07-0.86,2.07-0.38,0.293-1.68,0.684-0.04,23.32-0.34,0.321-1.06,0.226-1.75,0.223-2.34,0.156-2.77,0.117-3.76,0.059-0.07,0-0.12,85.156,4.78,0.559,0,4.578-4.79,0.429-0.01,0.168,6.31,0.438-0.01,4.687-19.01,2.832-2.64-0.554-3.01,6.961-3.4,11.367-2.08,11.797-0.71,12.043-2.96,2.969-3.71,1.796-2.34,0.399-1.73,0.051-1.63-0.02-2.4-0.352-3.67-1.73-2.91-2.898-0.65-12.051-1.99-11.758-3.32-11.328-2.89-6.758-1.82,0.438-19.61-2.52,0.01-4.687,6.31-0.555,0-0.078-5.95-0.418,0.01-4.602,5.96-0.812,0.27-85.184-3.16-0.027-2.81-0.082-2.41-0.145-1.83-0.187-1.14-0.235-0.44-0.312,0.07-23.426-1.57-0.637-0.5-0.293-0.84-2.07,0.86-4.598,0.84-1.992,0.57-0.265,0.68-0.282,0-0.324-0.24-0.008-4.85-0.226-3.7-0.301-2.66-0.41-2.55-0.391-0.76-0.43-2.33-1.933-1.06-2.844,0.52-3.015,1.43-4.102,1.89-2.258,0.98-0.379,0,0.008,0.03-0.008-0.03,0,0.22-0.09-0.46-5.058-5.6-19.422-9.15-17.988-10.64-13.684-26.1,0.051-0.09,16.894-24.32,0.047,0.1-16.902-6.39,0-0.1,16.922-24.38,0.051,0.12-16.934-64.48,0.105,0,0.891-13.92,0-18.72,1.648-4,0.196-5.43-0.008,0,1.355-2.68-1.511-0.55-0.039-18.01-1.789-2.67-0.633-158.98,0.261,0.01,3.633-24.92-0.019-0.01-3.574-2.96,0-8.93-4.883-4.49,0-11.37,5.215,0.09,84.941-35.51-0.027,0.02,62.121,0.02,18.726-1.52,1.477-4.74,1.348-7.51,1.074-4.92,0.351-2.49,2.774-7.77,7.957-0.58,0.539-4.4,4.148-2.89,2.707-0.22,0.203,0-0.019-8.36,6.047-8.61,5.613-8.83,5.156-9.02,4.668-9.2,4.231-8.89,3.554-0.01,9.793,3.37,0-0.02,12.051-0.58,4.492-2.98-0.007-0.26,1.933-19.52-0.031,0-1.91-3.43,0,0.01-12.192,0.87-4.355,2.55,0,0.01-9.598-9.89-3.761-9.73-4.239-9.53-4.707-9.33-5.164-9.08-5.625-8.85-6.074-0.19,0-0.03-0.168-3.06-2.723-4.48-4.152-7.61-7.695-3.12-3.465-6.52-0.481-7.06-1.082-4.17-1.347-0.91-1.485,0.03-18.73,0.11-62.071-38.76-0.039,0.19-81.632-24.21-0.02,0.04-16.836-115.23-0.039-6.2-1.824-0.01,2.762-13.28-0.008-0.02,4.414-2.44,1.062,0.02-5.476-6.85,0-1.46,0.605-0.04,8.504-2.59,1.125,0.05-10.39-19.74,7.742-10.31,2.511-0.03,3.993-4.3,1.777,0.03-4.734-5.77,1.406-17.43,1.765-2.87,0.207-5.58-0.011-4.18-0.196-19.74-1.718,0,0.07-16.47-0.02,0.02-3.339-8.45-1.75-7.39-2.461-1.05,0.343,0-0.703-11.31-3.769-0.05,8.086-3.52,1.133,0.07-10.383,0.25-41.532,0.18-31.125,0.56-95.64-138.86,0.211-8.41,5.722-4.55,0.012,0.17,150.22-1.15,0.137-9.24,74.843-19.61,31.864-43.57,20.722-0.02,87.579-10.93,2.394-0.03,54.922-17.63,4.891-2,0.492-2.87,0.015-2.05-0.457-17.5-4.66,0-4.023,0.06-50.996-10.86-2.196,0.13-87.656-43.3-20.344-19.5-31.746-9.09-74.953-1.13-0.137,0.41-150.59-3.35,0.012-8.44-5.722-52.76,0.078-6.15,32.734-0.23,71.406-13.75,202.22-98.96,0.039-21.47,79.024-6.17-22.977-5.63,20.789-10.22-38.164-1.01,5.188-3.97,0.007-0.19,0.852-10.24-0.031-1.79,93.418-10.73,11.711-0.04,55.554-1.25,61.812-10.02-0.01-89.16,489.57-0.42-0.01,6.13,2.56,0,7.63-1.27,2.27-5.37,2.15,1.43,0.01,0.02,22.91,3.45,1.99,1.98,3.43,4.63,0.02,0,3.95-0.03,0.48-4.62-0.02-2,3.42-3.45,1.97-0.99,15.14-1.99,0-1.01-15.16-3.45-1.99-1.99-3.43-4.63-0.02,0-3.95,0.04-0.48,4.62,0.02,1.99-3.42,3.42-1.94-0.01-22.48,0.04-0.46,1.41,0.01-6.67-2.78,0-7.65,1.3-2.23,4.82-1.95-0.46,0-91.33-489.75-7.96,0-3.56-61.768-0.09-55.496-10.48-11.711-1.86-93.289-5.5,0.019-0.2-0.839-3.06,0-8.93,32.929-11.8-42.824-12.24,44.992-21.85-78.886-91.62,0.019-19.66-201.63-0.01-3.406-13.17,10.887-11.19-0.008,0.15,24.922-5.53-0.254-2.71,3.269,5.4,0.227,0.4,68.602,2.86,0.031-1.92,11.492-1.92,11.484-2.32,57.551-1.61,5.77-1.65,1.125-1.74,0.047-2.66,0-2.02-0.047-1.57-1.125-1.57-5.762-0.4-0.117-0.76-14.957-0.44,10.855-1.5,5.313-1.52,1.047-1.61,0.046-0.91,0,0.08,16.614-2.77,2.957,0.17,37.558-0.95,0.051-0.05,7.813-0.27,7.039-0.41,4.504-0.51,1.277-0.51-2.098-0.46-5.168-0.32-7.39-0.09-5.84-5.25,0.273-1.85,12.235-3.39,12.304-4.73,11.477-2.5,4.336,0.13,4.851-0.1,5.137-0.28,1.856-7.76,0.011-2.59,3.321-8.05,7.597-8.84,5.938-20.68,1.699-4.21,3.731,15.47-1.309,0.03,7.5-5.65,0.496,0.09,41.797,0.01,2.558-12.39,1.329-18.3,0.031-13.26-1.281-0.44-1.817,0-0.867-0.02-41.77-5.05-0.386-0.51-1.86,0-5.879,0.51,0.239,16.57,1.258-3.6-3.723-22.15-1.649-8.63-5.91-7.87-7.586-2.54-3.32-9.32,0.008-0.03-2.5,0-5.391,0.02-5.117,0.02-1.465-0.96-1.707-4.65-11.476-3.34-12.313-1.85-12.285-8.51-0.402-0.05,18.41-0.02,2.097,0-1.277,0.01-19.23-0.02-0.008,0.07-37.598-2.72-2.969,0.14-69.453-2.16,46.297-0.01,0.11-0.61,2.156-0.09,1.945-0.02,0.125-1.62,5.762-1.61,1.144-1.89,0.039-2.67,0-1.87-0.039-1.61-1.132-1.6-5.762-2.43-57.656-1.91-11.504-1.9-11.516,2.79-0.02,0.18-62.351,0-0.293-3.18-1.789,2.57-0.098,0.01-4.226,0.61,0.32,0-0.273-5.57-3.145,2.79-0.113,0.07-24.965-18.18-0.02-3.13-2.714,0.63,14.023-7,4.387-6.23,5.105-5.33,5.742-4.35,6.282-3.3,6.668-2.19,6.984-8.52,12.988-10.72,11.641-12.6,10-14.13,8.125-15.27,6.023-15.98,3.84,1.15,30.77-1.8,1.699,3.27,87.883-11.57-0.02,0.01,0.262-1.81-0.262-6.62-0.012,1.05,29.532-7.32-1.739-1.08-30.664-4.4-0.007,0.01,0.234-1.6-0.234-12.54-0.02-2.54-75.187-371.62,0.312,0.22,34.98-10.92,0,0,0.704-81.93-0.02,0.01-35.574-348.9,0.293-1.902,73.476-11.961-0.019-2.672,0.215,1.984-73.664-13.539,0.011,4.535,0.243-2.847,103.3-12.27,1.672,0.82-29.004-9.562-0.019-3.02,0.242,0.004-0.254-9.675-0.008,2.578-85.625-3.012-1.652,0.906-29.981-16.555-3.66-15.804-5.812-14.625-7.813-13.055-9.668-11.109-11.23-8.852-12.547-2.305-6.75-3.449-6.453-4.515-6.047-5.508-5.527-6.418-4.903-7.199-4.168,4.871-126.3-14.395,6.085,0.035,108.68,0,7.883-0.828,21.492-2.484,21.262-4.11,20.781-5.671,19.988-7.184,18.977-6.93,16.152-8.41,17.176-9.613,15.305-10.688,13.242-11.605,10.977-12.332,8.621-12.895,6.125-10.086,2.722,0.211,105.54-2.98,16.844-2.938,7.012-17.539,14.504-5.886,1.308-3.914,51.864-0.215,0.519,4.574,3.887,0.019,6.824-0.804,1.992-4.614,4.18-2.261,0.547-0.672-0.008,0.055,20.059,1.043-2.59,0.007,4.394-1.035,2.61,0.016,6.859-0.328,0.84,0.558,0,0,1.1,0.559,0,2.203,1.51,1.414,2.63,1.145,5.41,0.019,6.85,1.637,3.26,2.887,2.6,1.379,2.89-2.231,1.05-2.016,0.01-1.32-2.04-1.691-4.32-1.047-6.77-0.016-2.77-0.711-1.48-3.027,0.01-2.199,1.88-3.157,4.73-2.683,2.83-2.66,0.86-2.242,0.02-2.446-1.92-0.769-2.54-0.008-2.53,1.25-2.48,1.945-2.16,1.121,0,0.418,1.02,1.352,1.47,1.683-0.01,1.996-1.44,1.598-2.92,1.27-3.43,1.328-1.51,1.344-0.7,0.558,0-0.004-1.11,0.215,0-0.012-6.012-1.05,2.629-0.016-4.434,1.055-2.628-0.059-21.739-1.504-0.019-1.765-0.614-5.133-4.335-0.02-6.836,0.856-1.965,3.586-3.27-0.094-0.039-4.274-52.14-7.3-2.305-19.434-15.008-3.133-16.484-0.363-111.92-14.645-3.879-14.214-6.399-13.598-8.855-12.789-11.203-11.785-13.406-10.621-15.43-9.297-17.258-7.828-18.816-6.243-20.149-4.574-21.179-2.805-21.907-1.027-22.324-0.039-8.211-0.516-99.746-347.8-2.227-1.477,384.17-6.816,7.434-0.133,33.066-19.946,8.125-1.32,0.868-0.512,122.18-4.125,5.39-5.55,4.42-4.051,2.07-5.7384,2.75-6.3242,1.28-4.6289,0.71,4.9609,14.06-9.3945,15.13-2.5508,45.69-0.8633,0.26-1.664,0.04-0.8086-0.24-2.1172-45.62-9.2618-14.86,5.0782-14.15-4.9102-0.63-6.4726-1.08-5.8633-2.59-3.4727-1.97-5.5312-4.28-4.0977-5.29,0.6445-122.45-23.664-8.68,0.1836-33.203-7.1953-7.375,2.2343-392.94-1.0468-0.02-0.4492-0.637-4.4649-6.414-0.48438-0.703,0.01172-2.441-1.7266-0.008-1.0156-1.469,0.10156-17.117,0.3086-53.594l-4.5238-0.22-1.8516-3.58,0.70703-120.94h-0.70703v-250.32h8364.4v226.5l2.21,0.879-1.84,3.269,4.33-0.019zm-2275.3,945.61,3.1,5.6,0.06,0-3.1-5.6,0-0.01-0.06,0,0,0.01zm-8.78,10.05,0.11,0-0.03-4.1-0.11,0,0.03,4.1zm-0.03-4.13,0.11,0,0-0.04-0.11,0,0,0.04zm-14.44-239.87,0.03,0-0.03-0.008,0,0.008zm-42.53-1.375-0.02,0,0.02,0zm-1.7-25.195,0.03,0-0.03-0.02,0,0.02zm-1.04,25.605,0.02,0-0.02-0.012,0,0.012zm-796.14-418.99-0.47,4.297,0.47-4.297zm-1.88,5.039,0-0.012-0.15,1.309,0.15-1.297zm-3234.6,300.27,1.13,0-1.16-2.04,0.03,2.04"/><path id="path32" d="m4307.7,877.59-2.03,4.953-1.38,0.594-3.1,1.328,1.61,0.449-1.69,45.801,3.64-3.301,0.01,0.235-2.13,4.894,4.62,2.664,0.01,0.227-5.42-0.469-1.17,5.391-1.16-5.364-5.43,0.606-0.02-0.223,4.64-2.805-2.09-4.824-0.01-0.222,3.64,3.222-1.44-45.793,1.56-0.476-4.47-1.828-2.02-4.911,2.04-4.961,4.9-2.089,4.88,1.992,2.01,4.91"/></g></g></svg>
